<svg viewBox="0 10 211.73 180" strokeLinecap="round" strokeLinejoin="round">
                                <defs>
                                <linearGradient id="b" x1="102.94" y1="154.47" x2="102.94" y2="36.93" gradientUnits="userSpaceOnUse">
                                    <stop offset="0" stopColor="#fff5cc"/>
                                    <stop offset=".01" stopColor="#faf0c8"/>
                                    <stop offset=".19" stopColor="#c2b599"/>
                                    <stop offset=".35" stopColor="#998977"/>
                                    <stop offset=".47" stopColor="#806f62"/>
                                    <stop offset=".54" stopColor="#77655a"/>
                                    <stop offset=".6" stopColor="#77655a"/>
                                    <stop offset="1" stopColor="#77655a"/>
                                </linearGradient>
                                <clipPath id="a">
                                    <path d="M39 153.73s31.57 19.71 77.26 15.21 90.18-37.23 90.36-72.33-8.82-80.28-33.59-86.29C136.84-6.57 114.13-5.82 88-2.82S34.73 11.45 16.71 48.24C-1.5 66.64-4.88 125.2 39 153.73" fill="none"/>
                                </clipPath>
                                </defs>
                                <path className="bg" d="M39 153.73s31.57 19.71 77.26 15.21 90.18-37.23 90.36-72.33-10.51-57-35.28-63-50.22 17-76.31 20-60.12-15.88-78.32 2.51S-4.88 125.2 39 153.73" fill="#6FDCBF" style={{fill:"#c250d5", fillOpacity:1}}/>
                                <g clipPath="url(#a)">
                                <g className="me">
                                    <g className="body">
                                    <path className="hair-back hair" d="M127.63 45.17c2.65 1.35 11.15 4.2 16.07 23.12 2.88 20.58 3.79 26.07 4.68 30.6s1.2 11.6 6.3 21.15.85 14.65.85 14.65l-7.63 7.08-16.36 8.24c-2.7 1.09-18.82 6.25-30.6 3.86l-27.67-5.74s-7.11-4.65-12.77-5.21a51.4 51.4 0 0 1-9.5-1.78s-5-11.43-.4-23.56 7.4-13.48 7.72-28.71 2.41-34.66 20.41-45 38.14-8.47 48.9 1.3" fill="url(#b)" style={{fill:"#794627", fillOpacity:1}}/>
                                    <path className="neck" d="M114.26 143.16v-14a9.22 9.22 0 1 0-18.43 0v14c-15.27 2.84-24.74 15.08-24.74 27.33H139c0-12.24-9.5-24.49-24.74-27.33" fill="#ede3d1" style={{fill:"#d2a679", fillOpacity:1}}/>
                                    <path className="top" d="M104.753 164.108c-30.17 0-24.503-37.108-24.503 18.732h25.35l25-2.14c-.05-55.79 4.313-16.592-25.847-16.592" fill="#fff" stroke="#404040" strokeWidth=".5" style={{fill:"#151515", fillOpacity:1}}/>
                                    <path className="shoulder" d="M95.82 142.87c-16 1.84-29.37 19.5-29.37 40h29.37zm18.41-.2c15.76 1.85 29 19.6 29 40.2h-29z" fill="#404040" style={{fill:"#151515", fillOpacity:1}}/>
                                    </g>
                                </g>
                                <path className="shadow" d="M95.82 122.36h18.41v14.31s-10.5 5.54-18.41 0z" fill="#efceb9" style={{fill:"#d6a688", fillOpacity:1}}/>
                                <g className="head">
                                    <g className="ear-left ear">
                                    <path d="M63.52 105.14A8.21 8.21 0 0 0 72 113.2a8.36 8.36 0 0 0 8.51-8.1A8.21 8.21 0 0 0 72 97a8.36 8.36 0 0 0-8.48 8.14" fill="#ede3d1" style={{fill:"#d2a679", fillOpacity:1}}/>
                                    <path d="M68.54 104.48a17 17 0 0 1 4.14.41c1.07.31 1.94 1 3 1.31a.39.39 0 0 0 .43-.57c-1.15-2.38-5.49-1.86-7.58-1.67a.26.26 0 0 0 0 .52z" fill="#b5aa9a" style={{fill:"#2b343b", fillOpacity:1}}/>
                                    </g>
                                    <g className="ear-right ear">
                                    <path d="M144.37 105.24a8.2 8.2 0 0 1-8.37 8.06 8.35 8.35 0 0 1-8.51-8.1 8.21 8.21 0 0 1 8.42-8.06 8.35 8.35 0 0 1 8.46 8.1" fill="#ede3d1" style={{fill:"#d2a679", fillOpacity:1}}/>
                                    <path d="M139.6 104c-2.1-.19-6.43-.72-7.59 1.67a.39.39 0 0 0 .44.57c1.07-.26 1.92-1 3-1.31a17.5 17.5 0 0 1 4.15-.41.26.26 0 0 0 0-.52" fill="#b5aa9a" style={{fill:"#2b343b", fillOpacity:1}}/>
                                    </g>
                                    <g className="face">
                                    <rect x="73.99" y="48.26" width="61.54" height="80.49" rx="26.08" transform="rotate(180 104.76 88.5)" fill="#ede3d1" style={{fill:"#d2a679", fillOpacity:1}}/>
                                    <g className="inner-face">
                                        <path className="eyebrow-right" d="M120.73 79a9 9 0 0 0-4-1.22 9.8 9.8 0 0 0-4.19.87" fill="none" stroke="#b5aa9a" strokeWidth="1.04" style={{stroke:"#0c0a09", strokeOpacity:1}}/>
                                        <path className="eyebrow-left" d="M97.12 79.41a9.5 9.5 0 0 0-4-1.11 10.6 10.6 0 0 0-4.2.76" fill="none" stroke="#b5aa9a" strokeWidth="1.04" style={{fill:"#d2a679", fillOpacity:1, stroke:"#12100d", strokeOpacity:1}}/>
                                        <path className="mouth" d="M97 107.52s7.06 4.62 14 1.59" fill="none" stroke="#b5aa9a" strokeWidth="1.04" style={{fill:"#2b343b", fillOpacity:.06374502, stroke:"#0d0b09", strokeOpacity:1}}/>
                                        <g className="eyes" fill="#2b343b">
                                        <path className="eye-left eye" d="M89.48 87.37c-.07 2.08 1.25 3.8 2.94 3.85s3.1-1.59 3.16-3.67-1.25-3.8-2.94-3.85-3.1 1.59-3.16 3.67"/>
                                        <path className="eye-right eye" d="M113.67 87.37c-.07 2.08 1.25 3.8 2.94 3.85s3.1-1.59 3.16-3.67-1.25-3.8-2.94-3.85-3.1 1.59-3.16 3.67"/>
                                        </g>
                                        <path className="nose" d="M102.39 98.13s3.09 1.55 5.78 0" fill="none" stroke="#e0d5c1" style={{fill:"#2b343b", fillOpacity:1, stroke:"#090805", strokeOpacity:.06772909}}/>
                                        <path className="blush-left eye" d="M89.9 98.17a2.66 2.66 0 0 1-1.55-.93 3.73 3.73 0 0 1-.76-3.12 3 3 0 0 1 1-1.56 2 2 0 0 1 1.4-.42 3 3 0 0 1 2.5 2.72.8.8 0 0 1 0 .21 3.2 3.2 0 0 1 .11.91 2.1 2.1 0 0 1-1.77 2.21 2.1 2.1 0 0 1-.93-.02M89.34 96v-.05s-.04.05 0 .05" fill="#efceb9" fillRule="evenodd" style={{fill:"#fcb5f1", fillOpacity:1}}/>
                                        <path className="blush-right eye" d="M118.93 98.19a2.09 2.09 0 0 1-1.77-2.19 3.6 3.6 0 0 1 .1-.91v-.21a3 3 0 0 1 2.51-2.72 2 2 0 0 1 1.4.42 3 3 0 0 1 1 1.56 3.73 3.73 0 0 1-.76 3.12 2.66 2.66 0 0 1-1.55.93 2.1 2.1 0 0 1-.93 0m1.53-2.2v.05c0 .05.05-.04 0-.04z" fill="#efceb9" fillRule="evenodd" style={{fill:"#fcb5f1", fillOpacity:1}}/>
                                    </g>
                                    <path className="hair-front" d="M134.1 57.61C129.22 51.79 118 45 115.33 44.84s-13-1.87-20.65 0-16 4.51-18.77 8.26-6.17 18-4.77 24.41c0 0 11.504-1.76 15.845-3.405 7.863-3.393 13.282-8.698 18.447-14.89 5.366 5.85 5.329 6.069 14.864 12.322 3.024 1.476 5.19 2.57 7.965 3.6l8.979 3.333s1.76-15.04-3.14-20.86" fill="#77655a" style={{fill:"#794627", fillOpacity:1}}/>
                                    </g>
                                </g>
                                </g>
                        </svg>